<svg xmlns="http://www.w3.org/2000/svg" viewBox="0 0 1200 630" role="img" aria-labelledby="title desc">
  <title id="title">TONE // AUDIO_LOG social preview</title>
  <desc id="desc">Social preview image for Anthony Klein's music studio log.</desc>
  <defs>
    <linearGradient id="toneWordGlow" x1="0%" y1="50%" x2="100%" y2="50%">
      <stop offset="0%" stop-color="#60a5fa" />
      <stop offset="55%" stop-color="#96a8ff" />
      <stop offset="100%" stop-color="#ff8c3a" />
    </linearGradient>
    <linearGradient id="eqGlow" x1="0%" y1="0%" x2="100%" y2="0%">
      <stop offset="0%" stop-color="#60a5fa" />
      <stop offset="50%" stop-color="#b29cff" />
      <stop offset="100%" stop-color="#ff8c3a" />
    </linearGradient>
    <radialGradient id="blueBloom" cx="0%" cy="45%" r="70%">
      <stop offset="0%" stop-color="#60a5fa" stop-opacity="0.26" />
      <stop offset="100%" stop-color="#60a5fa" stop-opacity="0" />
    </radialGradient>
    <radialGradient id="orangeBloom" cx="100%" cy="42%" r="68%">
      <stop offset="0%" stop-color="#ff8c3a" stop-opacity="0.24" />
      <stop offset="100%" stop-color="#ff8c3a" stop-opacity="0" />
    </radialGradient>
  </defs>
  <rect width="1200" height="630" fill="#080810" />
  <rect width="1200" height="630" fill="url(#blueBloom)" />
  <rect width="1200" height="630" fill="url(#orangeBloom)" />
  <g stroke="#6ae65c" stroke-opacity="0.08" stroke-width="1">
    <path d="M0 105.5h1200M0 210.5h1200M0 315.5h1200M0 420.5h1200M0 525.5h1200" />
    <path d="M171.5 0v630M343.5 0v630M515.5 0v630M687.5 0v630M859.5 0v630M1031.5 0v630" />
  </g>
  <g opacity="0.26">
    <path d="M888 150c78 0 156 0 234 0" stroke="#6ae65c" stroke-width="10" stroke-linecap="round"/>
    <path d="M828 138c-34 33-65 80-86 140-11 32-16 60-20 84" stroke="#60a5fa" stroke-width="8" stroke-linecap="round" fill="none"/>
    <path d="M1112 152c28 26 53 64 70 112 9 25 13 48 16 68" stroke="#ff8c3a" stroke-width="8" stroke-linecap="round" fill="none"/>
    <g transform="translate(800 216)">
      <rect x="-42" y="104" width="18" height="44" rx="3" fill="#60a5fa"/>
      <rect x="-14" y="74" width="18" height="74" rx="3" fill="#60a5fa"/>
      <rect x="14" y="54" width="18" height="94" rx="3" fill="#7a8cff"/>
      <rect x="42" y="18" width="18" height="130" rx="3" fill="#b29cff"/>
      <rect x="70" y="60" width="18" height="88" rx="3" fill="#ff9f66"/>
      <rect x="98" y="42" width="18" height="106" rx="3" fill="#ff8c3a"/>
      <rect x="126" y="82" width="18" height="66" rx="3" fill="#ff8c3a"/>
      <rect x="154" y="110" width="18" height="38" rx="3" fill="#ff8c3a"/>
    </g>
    <text x="786" y="366" fill="url(#toneWordGlow)" font-size="128" font-weight="500" letter-spacing="-5">tone</text>
    <text x="870" y="414" fill="#f2f1ff" fill-opacity="0.28" font-size="24" font-weight="400" letter-spacing="10">MUSIC STUDIO</text>
    <g transform="translate(890 454)" opacity="0.58">
      <line x1="0" y1="0" x2="0" y2="64" stroke="#60a5fa" stroke-width="3"/>
      <rect x="-8" y="18" width="16" height="12" rx="3" fill="#60a5fa"/>
      <line x1="44" y1="0" x2="44" y2="64" stroke="#c8c4ff" stroke-width="3"/>
      <rect x="36" y="34" width="16" height="12" rx="3" fill="#c8c4ff"/>
      <line x1="88" y1="0" x2="88" y2="64" stroke="#ff8c3a" stroke-width="3"/>
      <rect x="80" y="22" width="16" height="12" rx="3" fill="#ff8c3a"/>
    </g>
  </g>
  <g font-family="'JetBrains Mono', 'Fira Mono', monospace" text-rendering="geometricPrecision">
    <text x="110" y="178" fill="#6ae65c" font-size="56" font-weight="500" letter-spacing="4">TONE // AUDIO_LOG</text>
    <text x="112" y="276" fill="#f2f1ff" font-size="66" font-weight="500" letter-spacing="-2">Anthony Klein</text>
    <text x="112" y="358" fill="#f2f1ff" fill-opacity="0.8" font-size="28" font-weight="400" letter-spacing="0.15">
      <tspan x="112" dy="0">Deep house, underground DJ culture, production experiments,</tspan>
      <tspan x="112" dy="38">and self-hosted audio infrastructure.</tspan>
    </text>
    <text x="112" y="474" fill="#6ae65c" fill-opacity="0.9" font-size="24" font-weight="400" letter-spacing="1.6">MUSIC · STUDIO · RADIO · UNDERGROUND</text>
  </g>
</svg>
