<svg xmlns="http://www.w3.org/2000/svg" viewBox="0 0 1200 630" role="img" aria-labelledby="title desc">
  <title id="title">TONE // AUDIO_LOG social preview</title>
  <desc id="desc">Social preview image for Anthony Klein's music studio log.</desc>
  <rect width="1200" height="630" fill="#080810" />
  <g stroke="rgba(106,230,92,0.08)" stroke-width="1">
    <path d="M0 105.5h1200M0 210.5h1200M0 315.5h1200M0 420.5h1200M0 525.5h1200" />
    <path d="M171.5 0v630M343.5 0v630M515.5 0v630M687.5 0v630M859.5 0v630M1031.5 0v630" />
  </g>
  <g opacity="0.14">
    <path d="M856 150c84 0 169 0 253 0" stroke="#6ae65c" stroke-width="10" stroke-linecap="round"/>
    <path d="M812 138c-34 26-68 72-92 138-14 39-20 74-23 102" stroke="#60a5fa" stroke-width="7" stroke-linecap="round" fill="none"/>
    <path d="M114 0" fill="none"/>
    <path d="M1110 152c28 23 56 62 76 116 11 30 16 57 19 79" stroke="#ff8c3a" stroke-width="7" stroke-linecap="round" fill="none"/>
    <text x="760" y="346" fill="rgba(242,241,255,0.22)" font-size="124" font-weight="500" letter-spacing="-4">tone</text>
    <text x="842" y="394" fill="rgba(242,241,255,0.16)" font-size="24" font-weight="400" letter-spacing="10">MUSIC STUDIO</text>
  </g>
  <g font-family="'JetBrains Mono', 'Fira Mono', monospace" text-rendering="geometricPrecision">
    <text x="110" y="178" fill="#6ae65c" font-size="56" font-weight="500" letter-spacing="4">TONE // AUDIO_LOG</text>
    <text x="112" y="276" fill="#f2f1ff" font-size="66" font-weight="500" letter-spacing="-2">Anthony Klein</text>
    <text x="112" y="358" fill="rgba(242,241,255,0.8)" font-size="28" font-weight="400" letter-spacing="0.15">
      <tspan x="112" dy="0">Deep house, underground DJ culture, production experiments,</tspan>
      <tspan x="112" dy="38">and self-hosted audio infrastructure.</tspan>
    </text>
    <text x="112" y="474" fill="rgba(106,230,92,0.9)" font-size="24" font-weight="400" letter-spacing="1.6">MUSIC · STUDIO · RADIO · UNDERGROUND</text>
  </g>
</svg>
